<svg width="336" height="336" viewBox="0 0 336 336" fill="none" xmlns="http://www.w3.org/2000/svg">
<path d="M-0.00244141 168.079C-0.00244141 260.7 75.0816 335.784 167.703 335.784C260.323 335.784 335.408 260.7 335.408 168.079C335.408 75.4577 260.323 0.373596 167.703 0.373596C75.0816 0.373596 -0.00244141 75.4577 -0.00244141 168.079Z" fill="white"/>
<mask id="mask0_2234_2" style="mask-type:luminance" maskUnits="userSpaceOnUse" x="63" y="114" width="209" height="141">
<path d="M140.896 254.65L63.5762 114.07H112.766L157.896 196.07C163.403 206.086 164.705 217.879 161.517 228.855C158.329 239.832 150.912 249.092 140.896 254.6V254.65ZM230.686 211.11L177.326 114.11H128.136L205.456 254.65L230.686 211.11ZM270.116 133.39C271.242 131.43 271.833 129.208 271.829 126.948C271.825 124.687 271.227 122.467 270.094 120.511C268.961 118.555 267.334 116.931 265.376 115.802C263.417 114.673 261.197 114.079 258.936 114.08H193.936L216.236 157.18H256.496L270.116 133.39Z" fill="white"/>
</mask>
<g mask="url(#mask0_2234_2)">
<path d="M170.096 312.3C249.598 312.3 314.046 247.851 314.046 168.35C314.046 88.8484 249.598 24.3998 170.096 24.3998C90.5949 24.3998 26.1462 88.8484 26.1462 168.35C26.1462 247.851 90.5949 312.3 170.096 312.3Z" fill="url(#paint0_linear_2234_2)"/>
</g>
<defs>
<linearGradient id="paint0_linear_2234_2" x1="26.1562" y1="168.35" x2="314.046" y2="168.35" gradientUnits="userSpaceOnUse">
<stop stop-color="#439CFB"/>
<stop offset="1" stop-color="#E81CFF"/>
</linearGradient>
</defs>
</svg>
